<svg width="48" height="50" viewBox="0 0 48 50" fill="none" xmlns="http://www.w3.org/2000/svg">
<path d="M33.8381 11.9448C34.9179 5.35669 30.4788 0 24 0C17.5212 0 13.0821 5.35669 14.1619 11.9448L15.7816 21.8577C16.4414 25.7983 20.1007 29 24 29C27.8993 29 31.5586 25.7983 32.2184 21.8577L33.8381 11.9448Z" fill="#4DBDD6"/>
<path d="M32.4 30C30.12 32.1875 27.18 33.625 24 33.625C20.82 33.625 17.88 32.1875 15.6 30L3.78 34.125C1.68 34.875 0 37.3125 0 39.625V50H48V39.5625C48 37.25 46.32 34.8125 44.22 34.0625L32.4 30Z" fill="#4DBDD6"/>
</svg>
