<svg width="54" height="35" viewBox="0 0 54 35" fill="none" xmlns="http://www.w3.org/2000/svg">
<path d="M4.69998 31.4095C3.58414 31.4082 2.51435 30.952 1.72529 30.1411C0.936222 29.3302 0.492315 28.2306 0.490939 27.0837V11.1789C0.485295 10.6072 0.589991 10.0399 0.798973 9.50994C1.00796 8.98 1.31708 8.4979 1.70846 8.09151C2.09985 7.68513 2.56573 7.36253 3.07918 7.14236C3.59262 6.9222 4.14343 6.80884 4.69976 6.80884C5.2561 6.80884 5.80691 6.9222 6.32035 7.14236C6.8338 7.36253 7.29968 7.68513 7.69107 8.09151C8.08245 8.4979 8.39157 8.98 8.60056 9.50994C8.80954 10.0399 8.91424 10.6072 8.90859 11.1789V27.0837C8.90744 28.2306 8.46367 29.3302 7.67465 30.1412C6.88563 30.9522 5.81582 31.4083 4.69998 31.4095ZM4.69998 8.63398C4.04351 8.63469 3.41412 8.90304 2.94992 9.38016C2.48572 9.85728 2.22464 10.5042 2.22395 11.1789V27.0837C2.23256 27.7528 2.49719 28.3915 2.96056 28.8615C3.42393 29.3315 4.04875 29.595 4.69976 29.595C5.35078 29.595 5.9756 29.3315 6.43897 28.8615C6.90234 28.3915 7.16697 27.7528 7.17558 27.0837V11.1789C7.17501 10.5042 6.91402 9.85732 6.44989 9.38019C5.98576 8.90306 5.35642 8.63469 4.69998 8.63398Z" fill="#D9D9D9"/>
<path d="M49.2938 31.4095C48.1779 31.4083 47.1081 30.9522 46.3191 30.1412C45.5301 29.3302 45.0863 28.2306 45.0852 27.0837V11.1789C45.0795 10.6072 45.1842 10.0399 45.3932 9.50994C45.6022 8.98 45.9113 8.4979 46.3027 8.09151C46.6941 7.68513 47.16 7.36253 47.6734 7.14236C48.1869 6.9222 48.7377 6.80884 49.294 6.80884C49.8503 6.80884 50.4011 6.9222 50.9146 7.14236C51.428 7.36253 51.8939 7.68513 52.2853 8.09151C52.6767 8.4979 52.9858 8.98 53.1948 9.50994C53.4038 10.0399 53.5085 10.6072 53.5028 11.1789V27.0837C53.5015 28.2306 53.0575 29.3302 52.2685 30.1411C51.4794 30.952 50.4096 31.4082 49.2938 31.4095ZM49.2938 8.63398C48.6374 8.63469 48.008 8.90306 47.5439 9.38019C47.0798 9.85732 46.8188 10.5042 46.8182 11.1789V27.0837C46.8268 27.7528 47.0914 28.3915 47.5548 28.8615C48.0182 29.3315 48.643 29.595 49.294 29.595C49.945 29.595 50.5698 29.3315 51.0332 28.8615C51.4966 28.3915 51.7612 27.7528 51.7698 27.0837V11.1789C51.7691 10.5042 51.508 9.85728 51.0438 9.38016C50.5797 8.90304 49.9503 8.63469 49.2938 8.63398Z" fill="#D9D9D9"/>
<path d="M35.2165 34.0831H18.7772C17.0555 34.0831 15.3507 33.7346 13.76 33.0573C12.1694 32.3801 10.7241 31.3875 9.50673 30.1362C8.28933 28.8848 7.32365 27.3993 6.66482 25.7644C6.006 24.1294 5.66694 22.3771 5.66699 20.6075V9.07926C5.66699 7.66201 6.21475 6.3028 7.18975 5.30066C8.16476 4.29851 9.48715 3.73551 10.866 3.73551H17.1395C17.7037 3.73546 18.2641 3.64116 18.7989 3.4563L25.3258 1.19678C26.4094 0.82163 27.5832 0.824134 28.6653 1.20391L35.0618 3.44873C35.6026 3.63874 36.1701 3.73564 36.7416 3.73551H43.1277C44.5066 3.73551 45.8289 4.29851 46.804 5.30066C47.779 6.3028 48.3267 7.66201 48.3267 9.07926V20.6075C48.3268 22.3771 47.9877 24.1294 47.3289 25.7644C46.6701 27.3993 45.7044 28.8848 44.487 30.1362C43.2696 31.3875 41.8243 32.3801 40.2337 33.0573C38.643 33.7346 36.9382 34.0831 35.2165 34.0831Z" fill="#8BBCCB"/>
<path d="M27.4687 0.941967C26.7449 0.871956 26.0149 0.95873 25.3258 1.19669L18.7989 3.4562C18.2641 3.64106 17.7037 3.73536 17.1395 3.73541H10.866C9.48715 3.73541 8.16476 4.29841 7.18975 5.30056C6.21475 6.30271 5.66699 7.66191 5.66699 9.07916V20.6074C5.66694 22.377 6.006 24.1293 6.66482 25.7643C7.32365 27.3992 8.28933 28.8847 9.50673 30.1361C10.7241 31.3874 12.1694 32.38 13.76 33.0572C15.3507 33.7345 17.0555 34.083 18.7772 34.083H27.4687V0.941967Z" fill="#D9D9D9"/>
<path d="M18.0703 26.8542C21.2414 26.8542 23.8121 24.2119 23.8121 20.9525C23.8121 17.6931 21.2414 15.0508 18.0703 15.0508C14.8991 15.0508 12.3284 17.6931 12.3284 20.9525C12.3284 24.2119 14.8991 26.8542 18.0703 26.8542Z" fill="#D9D9D9"/>
<path d="M15.3492 23.2259C15.8053 23.2259 16.175 22.8458 16.175 22.3771C16.175 21.9083 15.8053 21.5283 15.3492 21.5283C14.8932 21.5283 14.5234 21.9083 14.5234 22.3771C14.5234 22.8458 14.8932 23.2259 15.3492 23.2259Z" fill="#595959" fill-opacity="0.01"/>
<path d="M20.7914 23.2259C21.2474 23.2259 21.6171 22.8458 21.6171 22.3771C21.6171 21.9083 21.2474 21.5283 20.7914 21.5283C20.3353 21.5283 19.9656 21.9083 19.9656 22.3771C19.9656 22.8458 20.3353 23.2259 20.7914 23.2259Z" fill="#595959" fill-opacity="0.01"/>
<path d="M18.0702 20.3765C18.5262 20.3765 18.8959 19.9965 18.8959 19.5277C18.8959 19.059 18.5262 18.679 18.0702 18.679C17.6141 18.679 17.2444 19.059 17.2444 19.5277C17.2444 19.9965 17.6141 20.3765 18.0702 20.3765Z" fill="#595959" fill-opacity="0.01"/>
<path d="M41.3452 24.1584H29.6348C29.405 24.1584 29.1846 24.0646 29.0221 23.8976C28.8596 23.7306 28.7683 23.504 28.7683 23.2678C28.7683 23.0316 28.8596 22.8051 29.0221 22.6381C29.1846 22.471 29.405 22.3772 29.6348 22.3772H41.3452C41.575 22.3772 41.7954 22.471 41.9579 22.6381C42.1204 22.8051 42.2117 23.0316 42.2117 23.2678C42.2117 23.504 42.1204 23.7306 41.9579 23.8976C41.7954 24.0646 41.575 24.1584 41.3452 24.1584Z" fill="#D9D9D9"/>
<path d="M43.4218 18.4878H29.6348C29.405 18.4878 29.1846 18.394 29.0221 18.2269C28.8596 18.0599 28.7683 17.8334 28.7683 17.5972C28.7683 17.361 28.8596 17.1344 29.0221 16.9674C29.1846 16.8004 29.405 16.7065 29.6348 16.7065H43.4218C43.6516 16.7065 43.872 16.8004 44.0345 16.9674C44.197 17.1344 44.2883 17.361 44.2883 17.5972C44.2883 17.8334 44.197 18.0599 44.0345 18.2269C43.872 18.394 43.6516 18.4878 43.4218 18.4878Z" fill="#D9D9D9"/>
<path d="M43.4218 12.762H29.6348C29.405 12.762 29.1846 12.6681 29.0221 12.5011C28.8596 12.3341 28.7683 12.1075 28.7683 11.8713C28.7683 11.6351 28.8596 11.4086 29.0221 11.2416C29.1846 11.0745 29.405 10.9807 29.6348 10.9807H43.4218C43.6516 10.9807 43.872 11.0745 44.0345 11.2416C44.197 11.4086 44.2883 11.6351 44.2883 11.8713C44.2883 12.1075 44.197 12.3341 44.0345 12.5011C43.872 12.6681 43.6516 12.762 43.4218 12.762Z" fill="#D9D9D9"/>
</svg>
