<svg width="22" height="22" viewBox="0 0 22 22" fill="none" xmlns="http://www.w3.org/2000/svg">
<path d="M22 10.992C22 11.3368 21.863 11.6487 21.6329 11.8732C21.4081 12.103 21.0958 12.2398 20.745 12.2398H12.255V20.7229C12.255 21.4124 11.6906 21.9762 11 21.9762C10.6547 21.9762 10.3422 21.8339 10.1121 21.6094C9.88728 21.3796 9.74497 21.0677 9.74497 20.7227V12.2398H1.25503C0.558937 12.2398 0 11.6816 0 10.992C0 10.6472 0.136984 10.3298 0.367125 10.1053C0.591937 9.88083 0.904234 9.73851 1.25503 9.73851H9.7448V1.25563C9.7448 0.566063 10.3092 0.0078125 10.9998 0.0078125C11.3451 0.0078125 11.6576 0.150125 11.8877 0.374422C12.1125 0.598891 12.2549 0.910844 12.2549 1.25563V9.73869H20.7446C21.4409 9.73869 22 10.2969 22 10.992Z" fill="#303030"/>
</svg>
