<svg width="34" height="34" viewBox="0 0 34 34" fill="none" xmlns="http://www.w3.org/2000/svg">
<g clip-path="url(#clip0_6_1280)">
<path d="M13.9613 2.125C16.3022 2.125 18.5907 2.81918 20.5371 4.11977C22.4836 5.42035 24.0007 7.26892 24.8965 9.43171C25.7924 11.5945 26.0268 13.9744 25.5701 16.2704C25.1134 18.5664 23.9861 20.6754 22.3307 22.3307C20.6754 23.9861 18.5664 25.1134 16.2704 25.5701C13.9744 26.0268 11.5945 25.7924 9.43172 24.8965C7.26893 24.0007 5.42036 22.4836 4.11977 20.5371C2.81919 18.5907 2.12501 16.3022 2.12501 13.9613C2.12501 10.8221 3.37204 7.81148 5.59176 5.59176C7.81149 3.37203 10.8221 2.125 13.9613 2.125ZM13.9613 0C11.2 0 8.50072 0.818813 6.2048 2.35289C3.90889 3.88698 2.11944 6.06743 1.06274 8.61851C0.00604921 11.1696 -0.27043 13.9767 0.268268 16.685C0.806966 19.3932 2.13665 21.8808 4.08916 23.8333C6.04168 25.7859 8.52933 27.1155 11.2376 27.6542C13.9458 28.1929 16.7529 27.9165 19.304 26.8598C21.8551 25.8031 24.0355 24.0136 25.5696 21.7177C27.1037 19.4218 27.9225 16.7225 27.9225 13.9613C27.9225 10.2585 26.4516 6.7074 23.8334 4.08916C21.2151 1.47091 17.664 0 13.9613 0Z" fill="black"/>
<path d="M24.3216 21.3196L21.3164 24.3248L30.2268 33.2353L33.232 30.2301L24.3216 21.3196Z" fill="black"/>
</g>
<defs>
<clipPath id="clip0_6_1280">
<rect width="34" height="34" fill="white"/>
</clipPath>
</defs>
</svg>
