<svg width="39" height="39" viewBox="0 0 39 39" fill="none" xmlns="http://www.w3.org/2000/svg">
<path d="M25.896 11.466C26.598 7.293 23.712 3.9 19.5 3.9C15.288 3.9 12.402 7.293 13.104 11.466L14.157 17.745C14.586 20.241 16.965 22.269 19.5 22.269C22.035 22.269 24.414 20.241 24.843 17.745L25.896 11.466Z" fill="#4C8E9D"/>
<path d="M24.96 22.62C23.478 23.985 21.567 24.882 19.5 24.882C17.433 24.882 15.522 23.985 14.04 22.62L6.35699 25.194C4.99199 25.662 3.89999 27.183 3.89999 28.626V35.1H35.1V28.587C35.1 27.144 34.008 25.623 32.643 25.155L24.96 22.62Z" fill="#4C8E9D"/>
</svg>
