<svg width="28" height="31" viewBox="0 0 28 31" fill="none" xmlns="http://www.w3.org/2000/svg">
<path d="M3.11111 31H24.8889C25.714 31 26.5053 30.6734 27.0888 30.092C27.6722 29.5107 28 28.7222 28 27.9V13.95C28 13.1278 27.6722 12.3393 27.0888 11.758C26.5053 11.1766 25.714 10.85 24.8889 10.85H21.7778V7.75C21.7778 5.69457 20.9583 3.72333 19.4997 2.26992C18.0411 0.816515 16.0628 0 14 0C11.9372 0 9.9589 0.816515 8.50028 2.26992C7.04166 3.72333 6.22222 5.69457 6.22222 7.75V10.85H3.11111C2.28599 10.85 1.49467 11.1766 0.911223 11.758C0.327777 12.3393 0 13.1278 0 13.95V27.9C0 28.7222 0.327777 29.5107 0.911223 30.092C1.49467 30.6734 2.28599 31 3.11111 31ZM14 24.025C13.3847 24.025 12.7832 23.8432 12.2716 23.5026C11.7599 23.1619 11.3612 22.6778 11.1257 22.1113C10.8902 21.5449 10.8286 20.9216 10.9487 20.3202C11.0687 19.7189 11.365 19.1665 11.8001 18.733C12.2352 18.2994 12.7896 18.0042 13.3931 17.8846C13.9965 17.7649 14.6221 17.8263 15.1906 18.061C15.7591 18.2956 16.2449 18.6929 16.5868 19.2027C16.9286 19.7125 17.1111 20.3119 17.1111 20.925C17.1111 21.7472 16.7833 22.5357 16.1999 23.117C15.6164 23.6984 14.8251 24.025 14 24.025ZM9.33333 10.85V7.75C9.33333 6.51674 9.825 5.334 10.7002 4.46195C11.5753 3.58991 12.7623 3.1 14 3.1C15.2377 3.1 16.4247 3.58991 17.2998 4.46195C18.175 5.334 18.6667 6.51674 18.6667 7.75V10.85H9.33333Z" fill="#4C8E9D"/>
</svg>
