<svg width="35" height="36" viewBox="0 0 35 36" fill="none" xmlns="http://www.w3.org/2000/svg">
<path d="M0 21.5335V32.3834C0 33.3426 0.527991 34.2625 1.46782 34.9407C2.40765 35.619 3.68233 36 5.01145 36H29.9885C31.3177 36 32.5923 35.619 33.5322 34.9407C34.472 34.2625 35 33.3426 35 32.3834V3.61664C35 2.65744 34.472 1.73754 33.5322 1.05929C32.5923 0.381037 31.3177 0 29.9885 0L5.01145 0C3.68233 0 2.40765 0.381037 1.46782 1.05929C0.527991 1.73754 0 2.65744 0 3.61664L0 14.3002H15.0544V10.6944L25.1801 18.0054L15.0544 25.3165V21.5335H0Z" fill="#D9D9D9"/>
</svg>
